<?xml version="1.0" encoding="UTF-8" standalone="no"?>
<svg
   xmlns:dc="http://purl.org/dc/elements/1.1/"
   xmlns:cc="http://creativecommons.org/ns#"
   xmlns:rdf="http://www.w3.org/1999/02/22-rdf-syntax-ns#"
   xmlns:svg="http://www.w3.org/2000/svg"
   xmlns="http://www.w3.org/2000/svg"
   xmlns:sodipodi="http://sodipodi.sourceforge.net/DTD/sodipodi-0.dtd"
   xmlns:inkscape="http://www.inkscape.org/namespaces/inkscape"
   version="1.1"
   viewBox="0 0 256 256"
   id="svg3432"
   inkscape:version="0.91 r13725"
   sodipodi:docname="menu.svg">
  <metadata
     id="metadata3462">
    <rdf:RDF>
      <cc:Work
         rdf:about="">
        <dc:format>image/svg+xml</dc:format>
        <dc:type
           rdf:resource="http://purl.org/dc/dcmitype/StillImage" />
      </cc:Work>
    </rdf:RDF>
  </metadata>
  <defs
     id="defs3460" />
  <sodipodi:namedview
     pagecolor="#ffffff"
     bordercolor="#666666"
     borderopacity="1"
     objecttolerance="10"
     gridtolerance="10"
     guidetolerance="10"
     inkscape:pageopacity="0"
     inkscape:pageshadow="2"
     inkscape:window-width="1280"
     inkscape:window-height="751"
     id="namedview3458"
     showgrid="false"
     inkscape:zoom="2.1992188"
     inkscape:cx="127.09058"
     inkscape:cy="128"
     inkscape:window-x="0"
     inkscape:window-y="0"
     inkscape:window-maximized="1"
     inkscape:current-layer="svg3432" />
  <g
     id="g3436"
     transform="translate(0.68241733,-9.9998474e-4)"
     style="fill:#000000;fill-rule:evenodd;fill-opacity:1">
    <path
       d="m 200.2,79.775 c -7.02,8.122 -8.11,29.405 2.91,38.365 -6.15,5.47 -19.12,10.42 -32.39,10.42 l -161.53,0 c -1.293,13.85 1.139,26.61 6.693,37.53 l 1.838,3.36 c 1.163,1.97 2.435,3.88 3.808,5.71 6.641,0.43 12.766,0.58 18.367,0.45 l 0.002,0 c 11.009,-0.24 19.991,-1.54 26.799,-3.9 1.014,-0.35 2.118,0.19 2.469,1.2 0.35,1.01 -0.187,2.12 -1.199,2.47 -0.905,0.31 -1.848,0.61 -2.822,0.88 -0.002,0 -0.003,0.01 -0.004,0.01 -5.361,1.53 -11.109,2.56 -18.526,3.01 0.44,0.01 -0.458,0.07 -0.461,0.07 -0.252,0.01 -0.569,0.05 -0.822,0.07 -2.919,0.16 -6.07,0.19 -9.291,0.19 -3.523,0 -6.992,-0.06 -10.871,-0.26 l -0.1,0.07 c 13.46,15.12 34.505,24.2 60.885,24.2 55.835,0 103.18,-24.75 124.16,-80.32 14.87,1.53 29.17,-2.26 35.67,-14.96 -10.36,-5.98 -23.68,-4.07 -31.35,-0.22 1.69,-13.129 -8.14,-23.446 -14.24,-28.345 z M 76.8,158.52 c 4.179,0 7.566,3.39 7.566,7.56 0,4.18 -3.387,7.57 -7.566,7.57 -4.18,0 -7.568,-3.39 -7.568,-7.57 0,-4.17 3.388,-7.56 7.568,-7.56 z"
       id="path3438"
       inkscape:connector-curvature="0"
       style="fill:#000000;fill-opacity:1" />
    <rect
       height="21.844999"
       width="21.844999"
       y="52.382"
       x="106.73"
       id="rect3440"
       style="fill:#000000;fill-opacity:1" />
    <rect
       height="21.844999"
       width="21.844999"
       y="77.587997"
       x="56.316002"
       id="rect3442"
       style="fill:#000000;fill-opacity:1" />
    <rect
       height="21.844999"
       width="21.844999"
       y="77.587997"
       x="81.523003"
       id="rect3444"
       style="fill:#000000;fill-opacity:1" />
    <rect
       height="21.844999"
       width="21.844999"
       y="77.587997"
       x="106.73"
       id="rect3446"
       style="fill:#000000;fill-opacity:1" />
    <rect
       height="21.844999"
       width="21.844999"
       y="102.79"
       x="31.112"
       id="rect3448"
       style="fill:#000000;fill-opacity:1" />
    <rect
       height="21.844999"
       width="21.844999"
       y="102.79"
       x="131.92999"
       id="rect3450"
       style="fill:#000000;fill-opacity:1" />
    <rect
       height="21.844999"
       width="21.844999"
       y="102.79"
       x="56.318001"
       id="rect3452"
       style="fill:#000000;fill-opacity:1" />
    <rect
       height="21.844999"
       width="21.844999"
       y="102.79"
       x="81.523003"
       id="rect3454"
       style="fill:#000000;fill-opacity:1" />
    <rect
       height="21.844999"
       width="21.844999"
       y="102.79"
       x="106.73"
       id="rect3456"
       style="fill:#000000;fill-opacity:1" />
  </g>
</svg>
