<?xml version="1.0" encoding="UTF-8" standalone="no"?>
<svg
   xmlns:dc="http://purl.org/dc/elements/1.1/"
   xmlns:cc="http://creativecommons.org/ns#"
   xmlns:rdf="http://www.w3.org/1999/02/22-rdf-syntax-ns#"
   xmlns:svg="http://www.w3.org/2000/svg"
   xmlns="http://www.w3.org/2000/svg"
   xmlns:sodipodi="http://sodipodi.sourceforge.net/DTD/sodipodi-0.dtd"
   xmlns:inkscape="http://www.inkscape.org/namespaces/inkscape"
   width="256"
   height="256"
   viewBox="0 0 256 256"
   version="1.1"
   id="svg3438"
   inkscape:version="0.91 r13725"
   sodipodi:docname="docker.svg"
   inkscape:export-filename="/Users/subhas/Documents/rdsubhas/docker-menu/menu-light.png"
   inkscape:export-xdpi="6.3299999"
   inkscape:export-ydpi="6.3299999">
  <metadata
     id="metadata3486">
    <rdf:RDF>
      <cc:Work
         rdf:about="">
        <dc:format>image/svg+xml</dc:format>
        <dc:type
           rdf:resource="http://purl.org/dc/dcmitype/StillImage" />
        <dc:title></dc:title>
      </cc:Work>
    </rdf:RDF>
  </metadata>
  <defs
     id="defs3484">
    <filter
       style="color-interpolation-filters:sRGB;"
       inkscape:menu-tooltip="Fades hue progressively to white"
       inkscape:menu="Color"
       inkscape:label="Hue to White"
       id="filter4588">
      <feColorMatrix
         values="1 0 0 0 0 1 0 0 0 0 1 0 0 0 0 0 0 0 0 1 "
         type="matrix"
         result="r"
         in="SourceGraphic"
         id="feColorMatrix4590" />
      <feColorMatrix
         values="0 1 0 0 0 0 1 0 0 0 0 1 0 0 0 0 0 0 0 1 "
         type="matrix"
         result="g"
         in="SourceGraphic"
         id="feColorMatrix4592" />
      <feColorMatrix
         values="0 0 1 0 0 0 0 1 0 0 0 0 1 0 0 0 0 0 0 1 "
         type="matrix"
         result="b"
         in="SourceGraphic"
         id="feColorMatrix4594" />
      <feBlend
         result="minrg"
         in="r"
         mode="darken"
         in2="g"
         id="feBlend4596" />
      <feBlend
         result="p"
         in="minrg"
         mode="darken"
         in2="b"
         id="feBlend4598" />
      <feBlend
         result="maxrg"
         in="r"
         mode="lighten"
         in2="g"
         id="feBlend4600" />
      <feBlend
         result="q"
         in="maxrg"
         mode="lighten"
         in2="b"
         id="feBlend4602" />
      <feComponentTransfer
         result="q2"
         in="q"
         id="feComponentTransfer4604">
        <feFuncR
           slope="0"
           type="linear"
           id="feFuncR4606" />
      </feComponentTransfer>
      <feBlend
         result="pq"
         in="p"
         mode="lighten"
         in2="q2"
         id="feBlend4608" />
      <feColorMatrix
         values="-1 1 0 0 0 -1 1 0 0 0 -1 1 0 0 0 0 0 0 0 1 "
         type="matrix"
         result="qminp"
         in="pq"
         id="feColorMatrix4610" />
      <feComposite
         k3="1"
         operator="arithmetic"
         result="qminpc"
         in="qminp"
         in2="qminp"
         id="feComposite4612" />
      <feBlend
         result="result2"
         in2="SourceGraphic"
         mode="screen"
         id="feBlend4614" />
      <feComposite
         operator="in"
         in="result2"
         in2="SourceGraphic"
         result="result1"
         id="feComposite4616" />
    </filter>
  </defs>
  <sodipodi:namedview
     pagecolor="#ffffff"
     bordercolor="#666666"
     borderopacity="1"
     objecttolerance="10"
     gridtolerance="10"
     guidetolerance="10"
     inkscape:pageopacity="0"
     inkscape:pageshadow="2"
     inkscape:window-width="1280"
     inkscape:window-height="751"
     id="namedview3482"
     showgrid="false"
     inkscape:zoom="0.92581655"
     inkscape:cx="127.13943"
     inkscape:cy="92.224689"
     inkscape:window-x="0"
     inkscape:window-y="0"
     inkscape:window-maximized="1"
     inkscape:current-layer="svg3438" />
  <g
     id="g3440"
     transform="matrix(0.96580862,0,0,0.96580862,-10.260935,58.065822)"
     style="fill:none;fill-rule:evenodd;stroke:none;stroke-width:1;filter:url(#filter4588)">
    <path
       d="m 147.4876,45.732418 22.86594,0 0,23.374728 11.56177,0 c 5.33905,0 10.83073,-0.951163 15.887,-2.664435 2.48448,-0.842443 5.27317,-2.014795 7.72392,-3.489205 -3.22785,-4.21436 -4.87579,-9.535732 -5.36101,-14.781054 -0.65874,-7.13426 0.78032,-16.420419 5.60897,-22.004218 l 2.40362,-2.780117 2.8642,2.302393 c 7.21138,5.793741 13.27612,13.889339 14.3451,23.118193 8.68312,-2.554109 18.87759,-1.949992 26.53135,2.467347 l 3.14002,1.811816 -1.65276,3.225707 c -6.47283,12.632904 -20.00495,16.546276 -33.23501,15.853791 -19.79715,49.308386 -62.89781,72.652586 -115.15715,72.652586 -26.998899,0 -51.769845,-10.09272 -65.875552,-34.04693 l -0.231364,-0.39096 -2.054962,-4.18116 C 32.083548,95.656703 30.499883,84.10564 31.574226,72.564218 l 0.32241,-3.457072 19.552937,0 0,-23.374728 22.865406,0 0,-22.866477 45.732951,0 0,-22.865941 27.43967,0 0,45.732418"
       id="path3444"
       inkscape:connector-curvature="0"
       style="fill:#364548" />
    <path
       d="m 221.57014,54.379649 c 1.53332,-11.915247 -7.38383,-21.274779 -12.91407,-25.71836 -6.37269,7.367765 -7.36295,26.677556 2.63498,34.807431 -5.57952,4.956117 -17.33731,9.448435 -29.37574,9.448435 l -146.545,0 c -1.170745,12.567029 1.035782,24.139514 6.074376,34.045325 l 1.667214,3.04897 c 1.055598,1.79146 2.208669,3.52027 3.454928,5.1848 l 5.36e-4,0 c 6.024569,0.38668 11.579448,0.52057 16.661423,0.4081 l 0.0021,0 c 9.987213,-0.22119 18.135832,-1.39943 24.311966,-3.53955 0.919565,-0.31973 1.921607,0.16817 2.239733,1.08666 0.31759,0.9185 -0.168703,1.92108 -1.087197,2.23974 -0.821021,0.28438 -1.677389,0.55056 -2.561607,0.80334 -0.0011,5.4e-4 -0.0021,5.4e-4 -0.0032,10e-4 -4.862929,1.38818 -10.077188,2.32274 -16.80549,2.7378 0.398996,0.006 -0.416134,0.06 -0.418276,0.0605 -0.228686,0.0139 -0.51682,0.0466 -0.746577,0.0594 -2.647833,0.14835 -5.506143,0.17941 -8.428184,0.17941 -3.195716,0 -6.34323,-0.0605 -9.861891,-0.23886 l -0.08998,0.0594 c 12.210343,13.72385 31.302159,21.95494 55.233346,21.95494 50.64836,0 93.6087,-22.45194 112.63196,-72.857702 13.49677,1.38497 26.46762,-2.056569 32.36794,-13.574427 -9.39863,-5.423665 -21.48419,-3.694326 -28.44332,-0.196552"
       id="path3446"
       inkscape:connector-curvature="0"
       style="fill:#22a0c8" />
    <path
       d="m 55.260653,49.542962 19.81697,0 0,19.818042 -19.81697,0 0,-19.818042 z m 1.650611,1.651682 1.563849,0 0,16.515749 -1.563849,0 0,-16.515749 z m 2.940251,0 1.62651,0 0,16.515749 -1.62651,0 0,-16.515749 z m 3.001841,0 1.62651,0 0,16.515749 -1.62651,0 0,-16.515749 z m 3.003447,0 1.626511,0 0,16.515749 -1.626511,0 0,-16.515749 z m 3.002912,0 1.626511,0 0,16.515749 -1.626511,0 0,-16.515749 z m 3.002377,0 1.564921,0 0,16.515749 -1.564921,0 0,-16.515749 z"
       id="path3454"
       inkscape:connector-curvature="0"
       style="fill:#23a3c2" />
    <path
       d="m 78.125523,26.677021 19.819113,0 0,19.816971 -19.819113,0 0,-19.816971 z m 1.652753,1.651682 1.562778,0 0,16.514142 -1.562778,0 0,-16.514142 z m 2.940251,0 1.625439,0 0,16.514142 -1.625439,0 0,-16.514142 z m 3.001306,0 1.62651,0 0,16.514142 -1.62651,0 0,-16.514142 z m 3.002912,0 1.62651,0 0,16.514142 -1.62651,0 0,-16.514142 z m 3.003447,0 1.626511,0 0,16.514142 -1.626511,0 0,-16.514142 z m 3.001841,0 1.565992,0 0,16.514142 -1.565992,0 0,-16.514142 z"
       id="path3456"
       inkscape:connector-curvature="0"
       style="fill:#23a3c2" />
    <path
       d="m 78.125523,49.542962 19.819113,0 0,19.818042 -19.819113,0 0,-19.818042 z m 1.652753,1.651682 1.562778,0 0,16.515749 -1.562778,0 0,-16.515749 z m 2.940251,0 1.625439,0 0,16.515749 -1.625439,0 0,-16.515749 z m 3.001306,0 1.62651,0 0,16.515749 -1.62651,0 0,-16.515749 z m 3.002912,0 1.62651,0 0,16.515749 -1.62651,0 0,-16.515749 z m 3.003447,0 1.626511,0 0,16.515749 -1.626511,0 0,-16.515749 z m 3.001841,0 1.565992,0 0,16.515749 -1.565992,0 0,-16.515749 z"
       id="path3458"
       inkscape:connector-curvature="0"
       style="fill:#34bbde" />
    <path
       d="m 100.99254,49.542962 19.81804,0 0,19.818042 -19.81804,0 0,-19.818042 z m 1.65168,1.651682 1.56278,0 0,16.515749 -1.56278,0 0,-16.515749 z m 2.93971,0 1.62651,0 0,16.515749 -1.62651,0 0,-16.515749 z m 3.00291,0 1.62652,0 0,16.515749 -1.62652,0 0,-16.515749 z m 3.00292,0 1.62651,0 0,16.515749 -1.62651,0 0,-16.515749 z m 3.00237,0 1.62758,0 0,16.515749 -1.62758,0 0,-16.515749 z m 3.00292,0 1.56385,0 0,16.515749 -1.56385,0 0,-16.515749 z"
       id="path3460"
       inkscape:connector-curvature="0"
       style="fill:#23a3c2" />
    <path
       d="m 100.99254,26.677021 19.81804,0 0,19.816971 -19.81804,0 0,-19.816971 z m 1.65168,1.651682 1.56278,0 0,16.514142 -1.56278,0 0,-16.514142 z m 2.93971,0 1.62651,0 0,16.514142 -1.62651,0 0,-16.514142 z m 3.00291,0 1.62652,0 0,16.514142 -1.62652,0 0,-16.514142 z m 3.00292,0 1.62651,0 0,16.514142 -1.62651,0 0,-16.514142 z m 3.00237,0 1.62758,0 0,16.514142 -1.62758,0 0,-16.514142 z m 3.00292,0 1.56385,0 0,16.514142 -1.56385,0 0,-16.514142 z"
       id="path3462"
       inkscape:connector-curvature="0"
       style="fill:#34bbde" />
    <path
       d="m 123.85901,49.542962 19.81751,0 0,19.818042 -19.81751,0 0,-19.818042 z m 1.65168,1.651682 1.56332,0 0,16.515749 -1.56332,0 0,-16.515749 z m 2.94026,0 1.62651,0 0,16.515749 -1.62651,0 0,-16.515749 z m 3.00184,0 1.62651,0 0,16.515749 -1.62651,0 0,-16.515749 z m 3.00344,0 1.62651,0 0,16.515749 -1.62651,0 0,-16.515749 z m 3.00292,0 1.62651,0 0,16.515749 -1.62651,0 0,-16.515749 z m 3.00237,0 1.56439,0 0,16.515749 -1.56439,0 0,-16.515749 z"
       id="path3464"
       inkscape:connector-curvature="0"
       style="fill:#34bbde" />
    <path
       d="m 123.85901,26.677021 19.81751,0 0,19.816971 -19.81751,0 0,-19.816971 z m 1.65168,1.651682 1.56332,0 0,16.514142 -1.56332,0 0,-16.514142 z m 2.94026,0 1.62651,0 0,16.514142 -1.62651,0 0,-16.514142 z m 3.00184,0 1.62651,0 0,16.514142 -1.62651,0 0,-16.514142 z m 3.00344,0 1.62651,0 0,16.514142 -1.62651,0 0,-16.514142 z m 3.00292,0 1.62651,0 0,16.514142 -1.62651,0 0,-16.514142 z m 3.00237,0 1.56439,0 0,16.514142 -1.56439,0 0,-16.514142 z"
       id="path3466"
       inkscape:connector-curvature="0"
       style="fill:#23a3c2" />
    <path
       d="m 123.85901,3.8105439 19.81751,0 0,19.8180421 -19.81751,0 0,-19.8180421 z m 1.65168,1.6506109 1.56332,0 0,16.5157492 -1.56332,0 0,-16.5157492 z m 2.94026,0 1.62651,0 0,16.5157492 -1.62651,0 0,-16.5157492 z m 3.00184,0 1.62651,0 0,16.5157492 -1.62651,0 0,-16.5157492 z m 3.00344,0 1.62651,0 0,16.5157492 -1.62651,0 0,-16.5157492 z m 3.00292,0 1.62651,0 0,16.5157492 -1.62651,0 0,-16.5157492 z m 3.00237,0 1.56439,0 0,16.5157492 -1.56439,0 0,-16.5157492 z"
       id="path3468"
       inkscape:connector-curvature="0"
       style="fill:#34bbde" />
    <path
       d="m 146.72495,49.542962 19.81805,0 0,19.818042 -19.81805,0 0,-19.818042 z m 1.65061,1.651682 1.56492,0 0,16.515749 -1.56492,0 0,-16.515749 z m 2.94026,0 1.62651,0 0,16.515749 -1.62651,0 0,-16.515749 z m 3.00344,0 1.62651,0 0,16.515749 -1.62651,0 0,-16.515749 z m 3.00184,0 1.62652,0 0,16.515749 -1.62652,0 0,-16.515749 z m 3.00399,0 1.62597,0 0,16.515749 -1.62597,0 0,-16.515749 z m 3.00237,0 1.56385,0 0,16.515749 -1.56385,0 0,-16.515749 z"
       id="path3470"
       inkscape:connector-curvature="0"
       style="fill:#23a3c2" />
    <path
       d="m 96.703732,101.49168 c 3.018979,0 5.466508,2.44861 5.466508,5.46758 0,3.01898 -2.447529,5.46651 -5.466508,5.46651 -3.019514,0 -5.467581,-2.44753 -5.467581,-5.46651 0,-3.01897 2.448067,-5.46758 5.467581,-5.46758"
       id="path3472"
       inkscape:connector-curvature="0"
       style="fill:#d3ecec" />
    <path
       d="m 96.703732,103.04268 c 0.500218,0 0.977406,0.0943 1.41764,0.2651 -0.477188,0.27582 -0.800133,0.79264 -0.800133,1.3839 0,0.88261 0.715514,1.59706 1.598125,1.59706 0.604653,0 1.130046,-0.3358 1.401576,-0.83174 0.19173,0.4622 0.29831,0.96991 0.29831,1.50226 0,2.16208 -1.752907,3.91498 -3.915518,3.91498 -2.162075,0 -3.91605,-1.7529 -3.91605,-3.91498 0,-2.16314 1.753975,-3.91658 3.91605,-3.91658"
       id="path3474"
       inkscape:connector-curvature="0"
       style="fill:#364548" />
    <path
       d="M 111.23736,140.88997 C 97.697741,134.4648 90.265707,125.73081 86.130611,116.19562 c -5.028954,1.43584 -11.074946,2.35327 -18.099414,2.74744 -2.646226,0.14835 -5.429557,0.2244 -8.351063,0.2244 -3.367632,0 -6.916285,-0.0996 -10.641674,-0.29723 12.416536,12.40903 27.691917,21.96351 55.9751,22.1381 2.08816,0 4.16134,-0.0407 6.2238,-0.11836"
       id="path3478"
       inkscape:connector-curvature="0"
       style="fill:#bdd9d7" />
  </g>
</svg>
