<?xml version="1.0" encoding="UTF-8" standalone="no"?>
<!-- Generator: Adobe Illustrator 16.0.0, SVG Export Plug-In . SVG Version: 6.00 Build 0)  -->

<svg
   xmlns:dc="http://purl.org/dc/elements/1.1/"
   xmlns:cc="http://creativecommons.org/ns#"
   xmlns:rdf="http://www.w3.org/1999/02/22-rdf-syntax-ns#"
   xmlns:svg="http://www.w3.org/2000/svg"
   xmlns="http://www.w3.org/2000/svg"
   xmlns:sodipodi="http://sodipodi.sourceforge.net/DTD/sodipodi-0.dtd"
   xmlns:inkscape="http://www.inkscape.org/namespaces/inkscape"
   version="1.1"
   id="Layer_1"
   x="0px"
   y="0px"
   width="256"
   height="256"
   viewBox="0 0 256 256.00001"
   enable-background="new 0 0 466 423.891"
   xml:space="preserve"
   inkscape:version="0.91 r13725"
   sodipodi:docname="docker-white.svg"
   inkscape:export-filename="/Users/subhas/Documents/rdsubhas/docker-menu/menu-active@2x.png"
   inkscape:export-xdpi="12.66"
   inkscape:export-ydpi="12.66"><metadata
     id="metadata4414"><rdf:RDF><cc:Work
         rdf:about=""><dc:format>image/svg+xml</dc:format><dc:type
           rdf:resource="http://purl.org/dc/dcmitype/StillImage" /><dc:title /></cc:Work></rdf:RDF></metadata><defs
     id="defs4412" /><sodipodi:namedview
     pagecolor="#ffffff"
     bordercolor="#666666"
     borderopacity="1"
     objecttolerance="10"
     gridtolerance="10"
     guidetolerance="10"
     inkscape:pageopacity="0"
     inkscape:pageshadow="2"
     inkscape:window-width="1280"
     inkscape:window-height="751"
     id="namedview4410"
     showgrid="false"
     inkscape:zoom="0.55674691"
     inkscape:cx="231.20385"
     inkscape:cy="211.9455"
     inkscape:window-x="0"
     inkscape:window-y="0"
     inkscape:window-maximized="1"
     inkscape:current-layer="g4378" /><rect
     x="-43.5"
     y="-130.88599"
     display="none"
     width="792"
     height="612"
     id="rect4376"
     style="clip-rule:evenodd;display:none;fill:#e7e7e7;fill-rule:evenodd" /><g
     id="g4378"
     transform="matrix(0.47061622,0,0,0.47061622,21.072699,23.856572)"
     style="stroke:#ffffff;stroke-opacity:1;stroke-width:6.37462092;stroke-miterlimit:4;stroke-dasharray:none;stroke-linejoin:miter;stroke-linecap:square;opacity:1"><path
       id="outline_7_"
       d="m 242.133,168.481 47.146,0 0,48.194 23.837,0 c 11.008,0 22.33,-1.962 32.755,-5.494 5.123,-1.736 10.872,-4.154 15.926,-7.193 -6.656,-8.689 -10.053,-19.661 -11.054,-30.476 -1.358,-14.71 1.609,-33.855 11.564,-45.368 l 4.956,-5.732 5.905,4.747 c 14.867,11.946 27.372,28.638 29.577,47.665 17.901,-5.266 38.921,-4.02 54.701,5.088 l 6.475,3.734 -3.408,6.652 c -13.345,26.046 -41.246,34.113 -68.524,32.687 -40.817,101.663 -129.68,149.794 -237.428,149.794 -55.666,0 -106.738,-20.81 -135.821,-70.197 l -0.477,-0.807 -4.238,-8.621 C 4.195,271.415 0.93,247.6 3.145,223.803 l 0.664,-7.127 40.315,0 0,-48.194 47.143,0 0,-47.145 94.292,0 0,-47.146 56.574,0 0,94.29 z"
       inkscape:connector-curvature="0"
       style="clip-rule:evenodd;fill-rule:evenodd;stroke:#ffffff;stroke-opacity:1;stroke-width:6.37462092;stroke-miterlimit:4;stroke-dasharray:none;stroke-linejoin:miter;stroke-linecap:square;fill:#008bb8;fill-opacity:1" /><g
       display="none"
       id="g4381"
       style="display:none;stroke:#ffffff;stroke-opacity:1;stroke-width:6.37462092;stroke-miterlimit:4;stroke-dasharray:none;stroke-linejoin:miter;stroke-linecap:square"><path
         display="inline"
         d="m 61.093,319.89 c 6.023,0 11.763,-0.157 17.219,-0.464 0.476,-0.026 0.932,-0.063 1.402,-0.092 0.005,-0.002 0.008,-0.002 0.012,-0.002 13.872,-0.855 25.876,-2.708 35.902,-5.57 0.002,-0.002 0.004,-0.002 0.006,-0.002 1.823,-0.521 3.588,-1.07 5.282,-1.656 1.894,-0.657 2.896,-2.725 2.241,-4.618 -0.656,-1.895 -2.722,-2.899 -4.618,-2.24 -12.734,4.412 -29.535,6.842 -50.125,7.298 -0.002,0 -0.004,0 -0.005,0 -10.477,0.232 -21.93,-0.044 -34.352,-0.843 0,0 0,0 -0.001,0 -0.635,-0.038 -1.259,-0.075 -1.9,-0.118 -1.995,-0.128 -3.731,1.374 -3.869,3.375 -0.136,1.999 1.376,3.73 3.375,3.866 2.537,0.173 5.03,0.321 7.49,0.453 0.392,0.021 0.77,0.034 1.158,0.054 l 0,0 c 7.256,0.366 14.194,0.559 20.783,0.559 z"
         id="path4383"
         inkscape:connector-curvature="0"
         style="display:inline;fill:#394d54;stroke:#ffffff;stroke-opacity:1;stroke-width:6.37462092;stroke-miterlimit:4;stroke-dasharray:none;stroke-linejoin:miter;stroke-linecap:square" /></g><g
       id="Containers_8_"
       style="stroke:#ffffff;stroke-opacity:1;stroke-width:6.37462092;stroke-miterlimit:4;stroke-dasharray:none;stroke-linejoin:miter;stroke-linecap:square"><path
         d="m 86.209,179.744 3.227,0 0,34.052 -3.227,0 0,-34.052 z m -6.189,0 3.354,0 0,34.052 -3.354,0 0,-34.052 z m -6.192,0 3.354,0 0,34.052 -3.354,0 0,-34.052 z m -6.192,0 3.354,0 0,34.052 -3.354,0 0,-34.052 z m -6.19,0 3.354,0 0,34.052 -3.354,0 0,-34.052 z m -6.062,0 3.224,0 0,34.052 -3.224,0 0,-34.052 z m -3.403,-3.406 40.858,0 0,40.86 -40.858,0 0,-40.86 z"
         id="path4386"
         inkscape:connector-curvature="0"
         style="clip-rule:evenodd;fill:#ffffff;fill-rule:evenodd;stroke:#ffffff;stroke-opacity:1;stroke-width:6.37462092;stroke-miterlimit:4;stroke-dasharray:none;stroke-linejoin:miter;stroke-linecap:square" /><path
         d="m 133.354,132.598 3.229,0 0,34.051 -3.229,0 0,-34.051 z m -6.189,0 3.354,0 0,34.051 -3.354,0 0,-34.051 z m -6.192,0 3.354,0 0,34.051 -3.354,0 0,-34.051 z m -6.192,0 3.354,0 0,34.051 -3.354,0 0,-34.051 z m -6.188,0 3.352,0 0,34.051 -3.352,0 0,-34.051 z m -6.062,0 3.222,0 0,34.051 -3.222,0 0,-34.051 z m -3.407,-3.405 40.863,0 0,40.859 -40.863,0 0,-40.859 z"
         id="path4388"
         inkscape:connector-curvature="0"
         style="clip-rule:evenodd;fill:#ffffff;fill-rule:evenodd;stroke:#ffffff;stroke-opacity:1;stroke-width:6.37462092;stroke-miterlimit:4;stroke-dasharray:none;stroke-linejoin:miter;stroke-linecap:square" /><path
         d="m 133.354,179.744 3.229,0 0,34.052 -3.229,0 0,-34.052 z m -6.189,0 3.354,0 0,34.052 -3.354,0 0,-34.052 z m -6.192,0 3.354,0 0,34.052 -3.354,0 0,-34.052 z m -6.192,0 3.354,0 0,34.052 -3.354,0 0,-34.052 z m -6.188,0 3.352,0 0,34.052 -3.352,0 0,-34.052 z m -6.062,0 3.222,0 0,34.052 -3.222,0 0,-34.052 z m -3.407,-3.406 40.863,0 0,40.86 -40.863,0 0,-40.86 z"
         id="path4390"
         inkscape:connector-curvature="0"
         style="clip-rule:evenodd;fill:#ffffff;fill-rule:evenodd;stroke:#ffffff;stroke-opacity:1;stroke-width:6.37462092;stroke-miterlimit:4;stroke-dasharray:none;stroke-linejoin:miter;stroke-linecap:square" /><path
         d="m 180.501,179.744 3.225,0 0,34.052 -3.225,0 0,-34.052 z m -6.191,0 3.355,0 0,34.052 -3.355,0 0,-34.052 z m -6.19,0 3.354,0 0,34.052 -3.354,0 0,-34.052 z m -6.192,0 3.354,0 0,34.052 -3.354,0 0,-34.052 z m -6.192,0 3.354,0 0,34.052 -3.354,0 0,-34.052 z m -6.06,0 3.222,0 0,34.052 -3.222,0 0,-34.052 z m -3.405,-3.406 40.861,0 0,40.86 -40.861,0 0,-40.86 z"
         id="path4392"
         inkscape:connector-curvature="0"
         style="clip-rule:evenodd;fill:#ffffff;fill-rule:evenodd;stroke:#ffffff;stroke-opacity:1;stroke-width:6.37462092;stroke-miterlimit:4;stroke-dasharray:none;stroke-linejoin:miter;stroke-linecap:square" /><path
         d="m 180.501,132.598 3.225,0 0,34.051 -3.225,0 0,-34.051 z m -6.191,0 3.355,0 0,34.051 -3.355,0 0,-34.051 z m -6.19,0 3.354,0 0,34.051 -3.354,0 0,-34.051 z m -6.192,0 3.354,0 0,34.051 -3.354,0 0,-34.051 z m -6.192,0 3.354,0 0,34.051 -3.354,0 0,-34.051 z m -6.06,0 3.222,0 0,34.051 -3.222,0 0,-34.051 z m -3.405,-3.405 40.861,0 0,40.859 -40.861,0 0,-40.859 z"
         id="path4394"
         inkscape:connector-curvature="0"
         style="clip-rule:evenodd;fill:#ffffff;fill-rule:evenodd;stroke:#ffffff;stroke-opacity:1;stroke-width:6.37462092;stroke-miterlimit:4;stroke-dasharray:none;stroke-linejoin:miter;stroke-linecap:square" /><path
         d="m 227.647,179.744 3.226,0 0,34.052 -3.226,0 0,-34.052 z m -6.19,0 3.354,0 0,34.052 -3.354,0 0,-34.052 z m -6.192,0 3.354,0 0,34.052 -3.354,0 0,-34.052 z m -6.192,0 3.354,0 0,34.052 -3.354,0 0,-34.052 z m -6.189,0 3.354,0 0,34.052 -3.354,0 0,-34.052 z m -6.063,0 3.224,0 0,34.052 -3.224,0 0,-34.052 z m -3.405,-3.406 40.861,0 0,40.86 -40.861,0 0,-40.86 z"
         id="path4396"
         inkscape:connector-curvature="0"
         style="clip-rule:evenodd;fill:#ffffff;fill-rule:evenodd;stroke:#ffffff;stroke-opacity:1;stroke-width:6.37462092;stroke-miterlimit:4;stroke-dasharray:none;stroke-linejoin:miter;stroke-linecap:square" /><path
         d="m 227.647,132.598 3.226,0 0,34.051 -3.226,0 0,-34.051 z m -6.19,0 3.354,0 0,34.051 -3.354,0 0,-34.051 z m -6.192,0 3.354,0 0,34.051 -3.354,0 0,-34.051 z m -6.192,0 3.354,0 0,34.051 -3.354,0 0,-34.051 z m -6.189,0 3.354,0 0,34.051 -3.354,0 0,-34.051 z m -6.063,0 3.224,0 0,34.051 -3.224,0 0,-34.051 z m -3.405,-3.405 40.861,0 0,40.859 -40.861,0 0,-40.859 z"
         id="path4398"
         inkscape:connector-curvature="0"
         style="clip-rule:evenodd;fill:#ffffff;fill-rule:evenodd;stroke:#ffffff;stroke-opacity:1;stroke-width:6.37462092;stroke-miterlimit:4;stroke-dasharray:none;stroke-linejoin:miter;stroke-linecap:square" /><path
         d="m 227.647,85.451 3.226,0 0,34.053 -3.226,0 0,-34.053 z m -6.19,0 3.354,0 0,34.053 -3.354,0 0,-34.053 z m -6.192,0 3.354,0 0,34.053 -3.354,0 0,-34.053 z m -6.192,0 3.354,0 0,34.053 -3.354,0 0,-34.053 z m -6.189,0 3.354,0 0,34.053 -3.354,0 0,-34.053 z m -6.063,0 3.224,0 0,34.053 -3.224,0 0,-34.053 z m -3.405,-3.403 40.861,0 0,40.86 -40.861,0 0,-40.86 z"
         id="path4400"
         inkscape:connector-curvature="0"
         style="clip-rule:evenodd;fill:#ffffff;fill-rule:evenodd;stroke:#ffffff;stroke-opacity:1;stroke-width:6.37462092;stroke-miterlimit:4;stroke-dasharray:none;stroke-linejoin:miter;stroke-linecap:square" /><path
         d="m 274.792,179.744 3.224,0 0,34.052 -3.224,0 0,-34.052 z m -6.19,0 3.352,0 0,34.052 -3.352,0 0,-34.052 z m -6.194,0 3.354,0 0,34.052 -3.354,0 0,-34.052 z m -6.19,0 3.354,0 0,34.052 -3.354,0 0,-34.052 z m -6.192,0 3.354,0 0,34.052 -3.354,0 0,-34.052 z m -6.062,0 3.227,0 0,34.052 -3.227,0 0,-34.052 z m -3.403,-3.406 40.86,0 0,40.86 -40.86,0 0,-40.86 z"
         id="path4402"
         inkscape:connector-curvature="0"
         style="clip-rule:evenodd;fill:#ffffff;fill-rule:evenodd;stroke:#ffffff;stroke-opacity:1;stroke-width:6.37462092;stroke-miterlimit:4;stroke-dasharray:none;stroke-linejoin:miter;stroke-linecap:square" /></g><path
       d="m 137.428,283.445 c 6.225,0 11.271,5.049 11.271,11.272 0,6.225 -5.046,11.271 -11.271,11.271 -6.226,0 -11.272,-5.046 -11.272,-11.271 0,-6.223 5.046,-11.272 11.272,-11.272"
       id="path4404"
       inkscape:connector-curvature="0"
       style="clip-rule:evenodd;fill:#ffffff;fill-rule:evenodd;stroke:#ffffff;stroke-opacity:1;stroke-width:6.37462092;stroke-miterlimit:4;stroke-dasharray:none;stroke-linejoin:miter;stroke-linecap:square" /><path
       d="m 137.428,286.644 c 1.031,0 2.015,0.194 2.923,0.546 -0.984,0.569 -1.65,1.635 -1.65,2.854 0,1.82 1.476,3.293 3.296,3.293 1.247,0 2.329,-0.693 2.89,-1.715 0.395,0.953 0.615,1.999 0.615,3.097 0,4.458 -3.615,8.073 -8.073,8.073 -4.458,0 -8.074,-3.615 -8.074,-8.073 -10e-4,-4.461 3.616,-8.075 8.073,-8.075"
       id="path4406"
       inkscape:connector-curvature="0"
       style="clip-rule:evenodd;fill-rule:evenodd;stroke:#ffffff;stroke-opacity:1;stroke-width:6.37462092;stroke-miterlimit:4;stroke-dasharray:none;stroke-linejoin:miter;stroke-linecap:square" /><path
       d="m 167.394,364.677 c -27.916,-13.247 -43.239,-31.256 -51.765,-50.915 -10.37,2.961 -22.835,4.852 -37.317,5.664 -5.457,0.307 -11.196,0.464 -17.219,0.464 -6.942,0 -14.26,-0.205 -21.94,-0.613 25.6,25.585 57.094,45.283 115.408,45.645 4.305,-0.001 8.579,-0.085 12.833,-0.245 z"
       id="path4408"
       inkscape:connector-curvature="0"
       style="fill:#ffffff;stroke:#ffffff;stroke-opacity:1;stroke-width:6.37462092;stroke-miterlimit:4;stroke-dasharray:none;stroke-linejoin:miter;stroke-linecap:square" /></g></svg>